<svg xmlns="http://www.w3.org/2000/svg" viewBox="0 0 800 500"><defs><style>.cls-1{fill:#fff;}</style></defs><g id="レイヤー_2" data-name="レイヤー 2"><g id="レイヤー_7" data-name="レイヤー 7"><path class="cls-1" d="M334.82,343.09c-5.71,0-11.13,5-12.13,10.92s2.64,11,8.42,11c5.63,0,11.41-4.71,12.48-11A8.86,8.86,0,0,0,334.82,343.09Z"/><path class="cls-1" d="M590.07,343a11.64,11.64,0,0,0-11.49,8.2h19.69C598.55,346,595.2,343,590.07,343Z"/><path class="cls-1" d="M456.7,356.5c-.93,5.21,2.21,8.49,7.63,8.49a11.86,11.86,0,0,0,12-9.42l1.57-8.77h-7.7C463,346.8,457.7,350.8,456.7,356.5Z"/><path class="cls-1" d="M189,343.09c-5.71,0-11.27,4.5-12.41,10.92s2.85,11,8.56,11,11.26-4.49,12.48-11S194.67,343.09,189,343.09Z"/><path class="cls-1" d="M106.33,153.81H86.87v29.52h19.18c9.52,0,13.07-7.57,13.07-14.69S115.57,153.81,106.33,153.81Z"/><path class="cls-1" d="M700.66,156.34H679V183.1h21.67c8.29,0,14.54-5.24,14.54-13.38S709,156.34,700.66,156.34Z"/><path class="cls-1" d="M0,0V500H800V0ZM549.42,138.6h68.64v17.74h-48v21.09h47v17.74h-47v22.54h48V235.6H549.42Zm-353.59-2.68h19.74v100.2H195.83ZM107,201.07H86.87v35.05H67.13V135.92H107c22.16,0,32,16.29,32,32.72S129.2,201.07,107,201.07Zm55.54,148.8H145.32l-3.64,20.82h-7.34L143,321.56h29l-1.14,6.7H149.17l-2.64,14.9h17.19Zm42,4.14A21.24,21.24,0,0,1,184,371.55c-9.49,0-16.26-7-14.41-17.54a21.09,21.09,0,0,1,20.54-17.48C199.59,336.53,206.44,343.45,204.59,354Zm31.59-9.63a10.67,10.67,0,0,0-4.71-1.14c-6.06,0-10.05,6.49-11.62,15.47l-2.14,12h-7.06l5.85-33.3h7.06l-1.29,7.27c2.79-5.7,6.57-8.13,10.77-8.13a11.21,11.21,0,0,1,5.49,1.22Zm35.59,26.31h-7.34l7.48-42.43H257.29l1.14-6.7H295l-1.14,6.7H279.26Zm40.94-26.31a10.67,10.67,0,0,0-4.71-1.14c-6.06,0-10.05,6.49-11.62,15.47l-2.14,12h-7.06l5.84-33.3h7.06l-1.28,7.27c2.78-5.7,6.56-8.13,10.77-8.13a11.27,11.27,0,0,1,5.49,1.22Zm35,26.31h-7l1-5.63a16.55,16.55,0,0,1-13,6.49c-8.7,0-14.9-7.28-13.12-17.54,1.71-9.92,10.13-17.48,19.54-17.48,4.85,0,9.06,2.07,10.56,5.85l.85-5h7ZM313.79,166.34c-12.5,13.4-12.36,32,0,43.53a26.3,26.3,0,0,0,26.85,5.75L347.74,234c-13.34,4.07-30.3,4.35-46.47-10.72-19.35-18.05-22.9-45.6-6.77-66.92l-16.11-15,11.7-12.55,16.73,15.6c19.65-13.85,44.89-11.28,62.88,5.5,16.17,15.08,17.28,32,14,45.5l-18.92-5.71a26.57,26.57,0,0,0-7.61-26.39C344.87,151.78,326.29,152.94,313.79,166.34ZM375.9,365a12.74,12.74,0,0,0,8.7-3.5l3.92,4.35a20,20,0,0,1-14,5.71c-9.63,0-16.76-7-14.9-17.54s11.41-17.48,21-17.48c5.42,0,9.63,2.21,12,5.71l-5.35,4.35a9.21,9.21,0,0,0-7.63-3.5A13.4,13.4,0,0,0,366.63,354C365.56,360.35,369.62,365,375.9,365Zm50.7,5.7h-9.13l-11.69-15.83-2.85,15.83h-7L405,319.27h7l-5.2,29.46,12.9-11.34h9.49l-16.62,14.48Zm5-232.09h20.65v43.34L486.6,138.6h25.45l-38.54,45.52,41.16,51.48H489.22l-29.38-38.83-7.56,9V235.6H431.63Zm59.23,208.2h-6.13l-1.57,8.77c-.93,5.64.78,9.28,4.42,9.28h1.35l-1.14,6.48H486.3c-5.42-.07-8.78-2.49-9.13-6.27-3.28,4-8.92,6.49-14.84,6.49-9.2,0-14.33-5.78-12.83-14.12a18.18,18.18,0,0,1,11.19-13.55c-3.06-1.64-4.56-5.71-3.78-10.49a15.71,15.71,0,0,1,15.76-12.69c5.42,0,9.42,2.57,11.27,6.56l-6.13,3.85a6.53,6.53,0,0,0-6.21-3.85,7.86,7.86,0,0,0-7.7,6.7c-.78,4.21,1.86,7.14,6.85,7.14h8.13l.93-5.28h6.84l-.93,5.35h6.14Zm53-3.64-1.14,6.71H525.45l-3.64,20.82h-7.34l8.63-49.13h29l-1.14,6.7H529.3l-2.64,14.9Zm15,27.53h-7l5.85-33.3h7Zm9.34-45.43a5.81,5.81,0,0,1-5.63,4.5,3.72,3.72,0,0,1-3.92-4.5,5.58,5.58,0,0,1,5.49-4.49A3.81,3.81,0,0,1,568.17,325.26Zm36.66,28.6a28,28,0,0,1-.72,3H577.59c0,5.42,3.49,8.2,8.91,8.2a13.21,13.21,0,0,0,10.2-4.85l5.06,2.78A20.62,20.62,0,0,1,585,371.55c-9.62,0-16-7.06-14.12-17.62a20.74,20.74,0,0,1,20.26-17.4C600.62,336.53,606.61,343.38,604.83,353.86Zm12.91,16.83h-7l9.06-51.42h7Zm44.14,0h-7l.86-4.92a16.52,16.52,0,0,1-12.48,5.78c-9.06,0-15.33-7-13.48-17.54s10.56-17.48,19.54-17.48c4.64,0,8.92,1.93,10.56,5.64l4.06-22.9h7ZM713.17,235.6l-19-34.76H679V235.6H658.34v-97h45.38c20.21,0,32.57,13.23,32.57,31.27,0,17.16-10.76,26.32-21.23,28.79l21.81,36.94Z"/><path class="cls-1" d="M649.05,343.09c-5.71,0-11.13,4.57-12.27,10.84S639.49,365,645.19,365a13.14,13.14,0,0,0,12.56-11.06C659,347.23,654.18,343.09,649.05,343.09Z"/></g></g></svg>