<svg width="71" height="10" viewBox="0 0 71 10" fill="none" xmlns="http://www.w3.org/2000/svg">
    <path d="M5.73828 5.50781H6.65234C6.65234 6.12109 6.47656 6.58203 6.125 6.89062C5.77344 7.19531 5.29492 7.34766 4.68945 7.34766C4.27148 7.34766 3.9082 7.25195 3.59961 7.06055C3.29492 6.86914 3.05859 6.60352 2.89062 6.26367C2.72656 5.92383 2.64453 5.5293 2.64453 5.08008V4.38281C2.64453 3.93359 2.72656 3.53906 2.89062 3.19922C3.05859 2.85938 3.29492 2.59375 3.59961 2.40234C3.9082 2.21094 4.27148 2.11523 4.68945 2.11523C5.29492 2.11523 5.77344 2.26758 6.125 2.57227C6.48047 2.87695 6.6582 3.33789 6.6582 3.95508H5.74414C5.74414 3.58008 5.6543 3.3125 5.47461 3.15234C5.29883 2.98828 5.03711 2.90625 4.68945 2.90625C4.43945 2.90625 4.23047 2.96875 4.0625 3.09375C3.89453 3.21875 3.76562 3.39258 3.67578 3.61523C3.58984 3.83398 3.54688 4.08789 3.54688 4.37695V5.08008C3.54688 5.36914 3.58984 5.625 3.67578 5.84766C3.76172 6.07031 3.88867 6.24414 4.05664 6.36914C4.22852 6.49414 4.43945 6.55664 4.68945 6.55664C5.03711 6.55664 5.29883 6.47656 5.47461 6.31641C5.65039 6.15625 5.73828 5.88672 5.73828 5.50781ZM1.32617 4.72852C1.32617 5.24414 1.41406 5.72461 1.58984 6.16992C1.76953 6.61133 2.01758 6.99805 2.33398 7.33008C2.65039 7.66211 3.01562 7.92188 3.42969 8.10938C3.84766 8.29297 4.29492 8.38477 4.77148 8.38477C5.24805 8.38477 5.69336 8.29297 6.10742 8.10938C6.52539 7.92188 6.89258 7.66211 7.20898 7.33008C7.52539 6.99805 7.77148 6.60938 7.94727 6.16406C8.12695 5.71875 8.2168 5.24023 8.2168 4.72852C8.2168 4.21289 8.12695 3.73438 7.94727 3.29297C7.77148 2.84766 7.52539 2.46094 7.20898 2.13281C6.89258 1.80078 6.52539 1.54297 6.10742 1.35938C5.69336 1.17578 5.24805 1.08398 4.77148 1.08398C4.29492 1.08398 3.84766 1.17578 3.42969 1.35938C3.01562 1.54297 2.65039 1.80078 2.33398 2.13281C2.01758 2.46094 1.76953 2.84766 1.58984 3.29297C1.41406 3.73438 1.32617 4.21289 1.32617 4.72852ZM0.611328 4.72852C0.611328 4.10742 0.71875 3.53125 0.933594 3C1.14844 2.46875 1.44727 2.00586 1.83008 1.61133C2.21289 1.21289 2.6543 0.904297 3.1543 0.685547C3.6582 0.462891 4.19727 0.351562 4.77148 0.351562C5.3457 0.351562 5.88281 0.462891 6.38281 0.685547C6.88672 0.904297 7.32812 1.21289 7.70703 1.61133C8.08984 2.00586 8.38867 2.46875 8.60352 3C8.81836 3.53125 8.92578 4.10742 8.92578 4.72852C8.92578 5.34961 8.81836 5.92578 8.60352 6.45703C8.38867 6.98828 8.08984 7.45508 7.70703 7.85742C7.32812 8.25586 6.88672 8.56641 6.38281 8.78906C5.88281 9.00781 5.3457 9.11719 4.77148 9.11719C4.19727 9.11719 3.6582 9.00586 3.1543 8.7832C2.6543 8.56055 2.21289 8.25 1.83008 7.85156C1.44727 7.45312 1.14844 6.98828 0.933594 6.45703C0.71875 5.92578 0.611328 5.34961 0.611328 4.72852ZM18.873 7.58203V9H15.1641V7.58203H18.873ZM15.6973 0.46875V9H13.9805V0.46875H15.6973ZM18.375 3.92578V5.30273H15.1641V3.92578H18.375ZM18.8613 0.46875V1.89258H15.1641V0.46875H18.8613ZM22.1562 0.46875V9H20.4512V0.46875H22.1562ZM30.0859 0.46875V9H28.4277L25.75 3.66211V9H24.1211V0.46875H25.7559L28.457 5.86523V0.46875H30.0859ZM34.7754 6.36914V0.46875H36.4863V6.375C36.4863 6.94141 36.377 7.43164 36.1582 7.8457C35.9434 8.25586 35.6504 8.57031 35.2793 8.78906C34.9082 9.00781 34.4902 9.11719 34.0254 9.11719C33.5488 9.11719 33.123 9.02344 32.748 8.83594C32.377 8.64453 32.084 8.35547 31.8691 7.96875C31.6543 7.57812 31.5469 7.08203 31.5469 6.48047H33.2695C33.2695 6.78516 33.3008 7.02539 33.3633 7.20117C33.4258 7.37695 33.5137 7.50391 33.627 7.58203C33.7441 7.66016 33.877 7.69922 34.0254 7.69922C34.1855 7.69922 34.3203 7.64648 34.4297 7.54102C34.543 7.43555 34.6289 7.28516 34.6875 7.08984C34.7461 6.89062 34.7754 6.65039 34.7754 6.36914ZM41.3105 1.99219L39.4766 9H37.666L40.332 0.46875H41.4629L41.3105 1.99219ZM42.7578 9L40.9121 1.99219L40.7422 0.46875H41.8906L44.5801 9H42.7578ZM42.8223 5.81836V7.24219H38.9727V5.81836H42.8223ZM50.9414 0.46875V9H49.2363V0.46875H50.9414ZM58.8711 0.46875V9H57.2129L54.5352 3.66211V9H52.9062V0.46875H54.541L57.2422 5.86523V0.46875H58.8711ZM64.8203 6.1582H66.5254C66.502 6.79883 66.373 7.33984 66.1387 7.78125C65.9043 8.21875 65.5703 8.55078 65.1367 8.77734C64.707 9.00391 64.1875 9.11719 63.5781 9.11719C63.1055 9.11719 62.6855 9.03906 62.3184 8.88281C61.9512 8.72266 61.6387 8.48828 61.3809 8.17969C61.123 7.87109 60.9277 7.49023 60.7949 7.03711C60.666 6.58008 60.6016 6.05469 60.6016 5.46094V4.01367C60.6016 3.41992 60.6699 2.89453 60.8066 2.4375C60.9473 1.98047 61.1465 1.59766 61.4043 1.28906C61.666 0.976562 61.9805 0.742188 62.3477 0.585938C62.7188 0.425781 63.1367 0.345703 63.6016 0.345703C64.2227 0.345703 64.7422 0.462891 65.1602 0.697266C65.5781 0.931641 65.9004 1.27344 66.127 1.72266C66.3574 2.16797 66.4961 2.71289 66.543 3.35742H64.832C64.8203 2.95117 64.7734 2.63281 64.6914 2.40234C64.6133 2.16797 64.4883 2.00391 64.3164 1.91016C64.1445 1.8125 63.9062 1.76367 63.6016 1.76367C63.375 1.76367 63.1797 1.80469 63.0156 1.88672C62.8516 1.96484 62.7168 2.0918 62.6113 2.26758C62.5059 2.44336 62.4277 2.67383 62.377 2.95898C62.3301 3.24414 62.3066 3.5918 62.3066 4.00195V5.46094C62.3066 5.86328 62.3281 6.20703 62.3711 6.49219C62.4141 6.77344 62.4824 7.00391 62.5762 7.18359C62.6699 7.36328 62.7969 7.49414 62.957 7.57617C63.1211 7.6582 63.3281 7.69922 63.5781 7.69922C63.8672 7.69922 64.0996 7.65625 64.2754 7.57031C64.4551 7.48438 64.5879 7.33008 64.6738 7.10742C64.7598 6.88477 64.8086 6.56836 64.8203 6.1582ZM68.1504 8.16211C68.1504 7.9043 68.2363 7.68945 68.4082 7.51758C68.5801 7.3418 68.8125 7.25391 69.1055 7.25391C69.3984 7.25391 69.6309 7.3418 69.8027 7.51758C69.9746 7.68945 70.0605 7.9043 70.0605 8.16211C70.0605 8.41992 69.9746 8.63477 69.8027 8.80664C69.6309 8.97852 69.3984 9.06445 69.1055 9.06445C68.8125 9.06445 68.5801 8.97852 68.4082 8.80664C68.2363 8.63477 68.1504 8.41992 68.1504 8.16211Z" fill="white"/>
</svg>
