<svg xmlns="http://www.w3.org/2000/svg" viewBox="0 0 647.99 104.1"><defs><style>.cls-1{fill:#000;}</style></defs><g id="レイヤー_2" data-name="レイヤー 2"><g id="仮決定ロゴ"><path class="cls-1" d="M223.63,22.33C243.3,1.24,272.68,1.7,292.75,20.41c15.64,14.59,16.71,31,13.58,44L288,58.91a25.71,25.71,0,0,0-7.36-25.53c-11.94-11.13-29.92-10-42,3s-12,31,0,42.11a25.46,25.46,0,0,0,26,5.57l6.89,17.77c-12.9,3.94-29.32,4.21-45-10.37C206.47,72.71,204,43.43,223.63,22.33Z"/><rect class="cls-1" x="214.79" y="0.41" width="16.6" height="35.63" transform="translate(57.62 168.96) rotate(-47)"/><path class="cls-1" d="M380,65.78l-7.32,8.72v28.85h-20V9.5h20V51.43L405.85,9.5h24.62l-37.28,44L433,103.35H408.38Z"/><path class="cls-1" d="M466.63,9.5H533V26.66H486.61V47.07h45.44V64.23H486.61V86H533v17.31H466.63Z"/><path class="cls-1" d="M606.63,69.72H592v33.63H572V9.5h43.9c19.56,0,31.52,12.8,31.52,30.25,0,16.6-10.41,25.47-20.54,27.86L648,103.35H625.06ZM613,26.66H592V52.55h21c8,0,14.07-5.06,14.07-12.94S621,26.66,613,26.66Z"/><path class="cls-1" d="M38.62,6.91c21.44,0,30.92,15.75,30.92,31.65S60.06,69.94,38.62,69.94H19.1v33.91H0V6.91Zm-1,45.86c9.21,0,12.64-7.31,12.64-14.21S46.87,24.21,37.93,24.21H19.1V52.77Z"/><path class="cls-1" d="M124.52,103.85V6.91h19.1v96.94Z"/></g></g></svg>
